Coordinates
version=1
nRows=43
nColumns=12
inDegrees=yes

Units are S.I. units (second, meters, Newtons, ...)
Angles are in degrees

endheader
time	SC_y	SC_z	SC_x	AC_y	AC_z	AC_x	GH_y	GH_z	GH_yy	EL_x	PS_y
       0.0              -37.54          22.21          60.89          61.62          -16.4          11.43         -14.53         -4.923          134.6          6.778          98.76
   0.02629              -37.54          22.21          60.88          61.62         -16.39          11.43         -14.53         -4.914          134.6          6.793          98.75
   0.05259              -37.53          22.21          60.88          61.62         -16.39          11.43         -14.54         -4.904          134.6          6.809          98.73
   0.07888              -37.53          22.21          60.88          61.62         -16.39          11.43         -14.54         -4.893          134.6          6.826          98.72
    0.1052              -37.53          22.21          60.88          61.62         -16.39          11.43         -14.54         -4.882          134.6          6.843           98.7
    0.1315              -37.53          22.21          60.88          61.62         -16.39          11.43         -14.55          -4.87          134.7          6.862          98.69
    0.1578              -37.52           22.2          60.88          61.62         -16.38          11.43         -14.55         -4.857          134.7          6.883          98.67
    0.1841              -37.52           22.2          60.88          61.62         -16.38          11.43         -14.55         -4.843          134.7          6.904          98.65
    0.2104              -37.52           22.2          60.88          61.62         -16.38          11.42         -14.56         -4.828          134.7          6.927          98.64
    0.2366              -37.51           22.2          60.87          61.62         -16.37          11.42         -14.56         -4.812          134.7          6.952          98.61
    0.2629              -37.51           22.2          60.87          61.62         -16.37          11.42         -14.57         -4.795          134.7          6.979          98.59
    0.2892               -37.5           22.2          60.87          61.63         -16.37          11.42         -14.58         -4.777          134.7          7.008          98.57
    0.3155               -37.5          22.19          60.87          61.63         -16.36          11.42         -14.58         -4.757          134.7          7.039          98.54
    0.3418              -37.49          22.19          60.87          61.63         -16.36          11.42         -14.59         -4.735          134.7          7.072          98.52
    0.3681              -37.49          22.19          60.87          61.63         -16.35          11.42          -14.6         -4.712          134.7          7.108          98.49
    0.3944              -37.48          22.19          60.86          61.63         -16.35          11.42          -14.6         -4.687          134.8          7.148          98.45
    0.4207              -37.47          22.18          60.86          61.63         -16.34          11.42         -14.61          -4.66          134.8           7.19          98.42
     0.447              -37.47          22.18          60.86          61.63         -16.34          11.42         -14.62          -4.63          134.8          7.237          98.38
    0.4733              -37.46          22.18          60.86          61.63         -16.33          11.42         -14.63         -4.597          134.8          7.287          98.34
    0.4996              -37.45          22.17          60.85          61.63         -16.32          11.41         -14.64         -4.562          134.8          7.343          98.29
    0.5259              -37.44          22.17          60.85          61.63         -16.32          11.41         -14.66         -4.523          134.8          7.404          98.24
    0.5522              -37.43          22.16          60.84          61.63         -16.31          11.41         -14.67         -4.479          134.9          7.471          98.18
    0.5785              -37.42          22.16          60.84          61.64          -16.3          11.41         -14.68         -4.432          134.9          7.545          98.12
    0.6048               -37.4          22.15          60.84          61.64         -16.29          11.41          -14.7         -4.379          134.9          7.628          98.06
    0.6311              -37.39          22.15          60.83          61.64         -16.28           11.4         -14.72         -4.321          135.0          7.719          97.98
    0.6574              -37.37          22.14          60.82          61.64         -16.26           11.4         -14.74         -4.255          135.0          7.821           97.9
    0.6837              -37.35          22.13          60.82          61.64         -16.25           11.4         -14.76         -4.182          135.0          7.935           97.8
    0.7099              -37.33          22.12          60.81          61.65         -16.23          11.39         -14.79           -4.1          135.1          8.063          97.69
    0.7362              -37.31          22.11           60.8          61.65         -16.21          11.39         -14.82         -4.007          135.1          8.209          97.57
    0.7625              -37.28           22.1          60.79          61.65         -16.19          11.39         -14.85         -3.901          135.2          8.373          97.44
    0.7888              -37.25          22.09          60.78          61.65         -16.17          11.38         -14.89         -3.781          135.3          8.562          97.28
    0.8151              -37.22          22.07          60.77          61.66         -16.14          11.38         -14.93         -3.642          135.3          8.777           97.1
    0.8414              -37.18          22.05          60.75          61.66         -16.11          11.37         -14.98         -3.483          135.4          9.027           96.9
    0.8677              -37.13          22.03          60.74          61.67         -16.07          11.36         -15.04         -3.297          135.5          9.316          96.66
     0.894              -37.08          22.01          60.72          61.67         -16.03          11.35         -15.11          -3.08          135.7          9.655          96.38
    0.9203              -37.01          21.98          60.69          61.68         -15.98          11.34         -15.19         -2.824          135.8          10.05          96.04
    0.9466              -36.94          21.95          60.66          61.69         -15.92          11.33         -15.29          -2.52          136.0          10.53          95.65
    0.9729              -36.85          21.91          60.63           61.7         -15.85          11.31          -15.4         -2.155          136.2           11.1          95.18
    0.9992              -36.73          21.86          60.59          61.71         -15.76           11.3         -15.54         -1.714          136.4          11.79          94.61
     1.025               -36.6           21.8          60.54          61.73         -15.65          11.27         -15.71         -1.175          136.7          12.63          93.91
     1.052              -36.43          21.72          60.48          61.75         -15.52          11.25         -15.92        -0.5099          137.1          13.67          93.05
     1.078              -36.23          21.63           60.4          61.77         -15.36          11.21         -16.18         0.3195          137.6          14.96          91.98
     1.104              -35.96          21.52          60.31           61.8         -15.15          11.17         -16.51          1.364          138.2          16.59          90.63
